<?xml version="1.0" standalone="no"?>
<!DOCTYPE svg PUBLIC "-//W3C//DTD SVG 20010904//EN"
 "http://www.w3.org/TR/2001/REC-SVG-20010904/DTD/svg10.dtd">
<svg version="1.0" xmlns="http://www.w3.org/2000/svg"
 width="1080.000000pt" height="1080.000000pt" viewBox="0 0 1080.000000 1080.000000"
 preserveAspectRatio="xMidYMid meet">

<g transform="translate(0.000000,1080.000000) scale(0.100000,-0.100000)"
fill="#000000" stroke="none">
<path d="M5125 10794 c-337 -26 -472 -42 -705 -85 -491 -90 -961 -247 -1420
-475 -551 -274 -979 -582 -1416 -1018 -436 -437 -744 -865 -1018 -1416 -307
-618 -473 -1208 -548 -1945 -16 -157 -16 -753 0 -910 66 -645 202 -1179 437
-1710 164 -372 336 -670 583 -1015 482 -671 1162 -1251 1911 -1629 150 -76
375 -181 387 -181 2 0 4 9 4 20 0 24 20 100 54 205 14 44 26 83 26 87 0 3 -30
9 -67 13 -167 16 -358 70 -473 133 -128 70 -245 177 -319 292 -47 72 -50 88
-18 94 12 2 46 9 75 15 30 6 122 11 206 11 127 0 163 3 211 20 125 43 294 142
330 193 34 48 14 438 -35 697 -12 64 -28 183 -44 346 -11 112 -22 163 -51 245
-20 57 -47 147 -61 199 -32 118 -55 150 -131 180 -32 13 -78 37 -103 54 -85
57 -213 170 -253 226 -23 30 -60 75 -83 100 -88 95 -108 178 -55 231 26 25 37
29 85 29 31 0 56 2 56 4 0 2 -20 47 -46 99 -69 148 -96 262 -102 441 -5 188 8
274 58 381 48 101 116 191 250 330 104 108 107 111 119 175 21 112 22 113 76
132 82 27 88 25 123 -40 17 -32 39 -65 49 -74 65 -58 220 -72 311 -27 45 22
50 23 35 7 -48 -53 -136 -74 -238 -58 -79 13 -182 15 -213 6 -17 -6 -20 -17
-24 -79 -3 -67 -10 -85 -100 -272 -107 -220 -135 -308 -144 -450 -8 -118 10
-201 75 -345 57 -128 47 -127 -27 2 -61 108 -109 249 -118 348 -8 93 9 215 36
252 11 15 20 38 20 51 0 27 57 146 111 233 48 76 92 171 85 183 -3 5 -22 12
-42 15 -41 8 -31 18 -136 -129 -39 -55 -91 -123 -115 -152 -23 -28 -43 -58
-43 -67 0 -9 -15 -47 -34 -84 -44 -88 -56 -149 -56 -286 0 -225 63 -426 197
-629 25 -37 44 -70 42 -71 -2 -2 -44 7 -94 20 -106 28 -125 29 -151 10 -19
-15 -19 -16 6 -63 90 -172 275 -342 518 -474 55 -30 64 -39 73 -74 5 -22 34
-114 64 -205 70 -214 83 -267 94 -386 5 -55 23 -178 40 -275 41 -238 55 -418
48 -624 l-6 -170 -33 -28 c-156 -134 -356 -212 -575 -224 l-111 -6 -19 -34
-18 -35 28 -21 c16 -12 57 -50 91 -84 71 -71 154 -114 306 -158 52 -15 113
-38 136 -51 36 -22 53 -24 157 -24 63 0 122 -3 131 -6 12 -5 9 -16 -19 -67
-40 -73 -63 -157 -71 -260 l-7 -75 32 -17 c36 -18 26 -24 144 75 102 86 295
187 411 216 26 6 28 5 20 -17 -5 -13 -9 -73 -9 -134 0 -140 36 -300 69 -309
54 -15 66 -8 93 52 61 134 143 235 247 303 57 37 59 38 88 23 17 -9 79 -63
139 -120 76 -74 125 -113 165 -131 55 -25 58 -25 71 -8 9 13 13 50 13 115 0
85 4 109 40 214 43 130 70 169 226 335 130 139 435 398 648 550 48 35 132 102
185 149 53 46 130 109 171 138 41 29 93 76 115 103 22 28 67 66 101 86 33 20
105 74 160 121 54 46 108 84 119 85 12 0 46 32 88 80 37 43 89 93 115 111 26
17 51 39 56 47 9 15 100 117 169 188 17 18 34 33 38 33 4 0 40 39 80 88 40 48
92 107 115 132 43 45 238 350 339 530 59 106 113 225 150 335 21 62 27 70 47
67 13 -2 67 -6 122 -9 96 -5 100 -4 165 28 88 44 281 221 312 287 13 26 28 52
35 57 33 27 85 109 81 127 -3 10 12 56 33 102 22 45 67 159 100 252 98 270
208 482 244 468 8 -3 38 2 67 10 29 9 70 16 91 16 45 0 74 14 178 83 293 196
483 437 551 698 28 107 28 212 1 354 -11 61 -25 142 -31 180 -15 100 -77 320
-110 390 -16 33 -58 100 -94 148 -37 49 -74 102 -84 118 -10 16 -23 29 -29 29
-7 0 -36 22 -66 48 -71 65 -101 81 -256 142 -73 29 -134 56 -137 60 -3 4 0 77
5 161 5 85 14 255 20 379 5 124 14 261 20 305 33 242 77 503 116 683 24 112
44 214 44 226 0 43 -326 340 -605 551 -132 101 -413 290 -420 283 -12 -12 -78
-215 -90 -276 -8 -41 -23 -88 -35 -106 -12 -20 -20 -51 -20 -77 0 -26 -8 -57
-19 -75 -11 -18 -23 -54 -26 -80 -4 -27 -18 -98 -30 -159 -13 -60 -29 -148
-35 -195 -6 -47 -20 -112 -30 -145 -12 -37 -19 -85 -19 -125 1 -36 -12 -139
-29 -230 -35 -188 -48 -313 -62 -625 -11 -224 -10 -230 25 -342 7 -23 7 -23
-101 -23 -60 0 -163 -5 -229 -10 -302 -23 -517 -39 -602 -44 l-93 -5 0 82 c0
45 6 159 15 252 19 214 39 721 36 920 0 28 4 133 9 235 14 274 12 702 -4 776
-9 41 -10 68 -3 79 6 11 4 36 -7 75 -9 32 -15 62 -14 67 1 4 -10 20 -25 35
-15 15 -27 31 -27 36 0 23 718 35 1130 19 l205 -7 -60 35 c-33 19 -116 64
-185 99 l-126 65 -419 -1 c-674 0 -1085 -20 -1950 -93 -159 -13 -319 -23 -355
-22 -36 1 -111 -4 -168 -11 -56 -7 -211 -17 -345 -22 -135 -5 -277 -16 -322
-24 -44 -9 -168 -22 -275 -31 -229 -18 -321 -29 -450 -56 -52 -11 -156 -23
-230 -26 -100 -4 -144 -10 -170 -23 -19 -10 -65 -27 -102 -38 -102 -32 -125
-46 -131 -84 -17 -97 -29 -353 -24 -523 3 -104 1 -242 -3 -305 -5 -63 -8 -257
-8 -430 2 -441 1 -481 -17 -663 -9 -89 -16 -229 -15 -312 1 -82 -3 -168 -9
-190 -6 -22 -11 -91 -11 -152 0 -62 -2 -113 -5 -113 -16 0 -275 -58 -410 -91
-237 -59 -431 -117 -508 -151 -38 -16 -75 -27 -83 -24 -8 3 -17 0 -20 -8 -3
-7 -24 -22 -47 -32 -23 -10 -50 -24 -59 -32 -9 -8 -22 -11 -28 -7 -7 4 -18 -2
-26 -14 -8 -12 -19 -21 -24 -21 -17 0 -165 -117 -216 -171 -60 -64 -97 -126
-117 -196 -27 -91 6 -186 119 -339 36 -49 73 -102 82 -117 17 -29 162 -137
322 -239 87 -56 191 -97 360 -144 87 -24 118 -27 370 -34 255 -7 310 -12 310
-29 -1 -29 -22 -33 -196 -36 -326 -6 -504 19 -693 96 -170 69 -373 201 -458
295 -32 36 -92 102 -133 147 -43 48 -81 99 -89 122 -7 22 -24 64 -38 94 -22
47 -24 64 -21 140 3 68 10 98 32 146 31 65 132 177 204 227 24 16 62 49 86 71
23 23 64 50 91 61 77 29 118 48 146 67 39 27 577 183 784 228 55 12 121 27
147 32 34 8 48 16 52 32 4 12 13 189 21 392 8 204 19 453 25 555 6 102 15 507
20 900 8 775 10 794 64 848 14 14 54 36 88 48 35 12 90 33 123 47 52 23 74 27
163 27 79 0 131 7 230 31 134 32 283 49 443 49 87 0 208 14 361 41 60 10 246
25 513 39 88 5 216 13 285 19 240 19 414 31 920 61 461 28 1028 48 1418 51
147 1 239 6 234 11 -20 20 -307 133 -502 198 -408 136 -784 215 -1240 260
-107 11 -653 21 -745 14z m-2039 -3426 c-3 -18 -11 -215 -17 -438 -6 -223 -12
-406 -14 -408 -6 -6 -74 10 -88 22 -12 9 -12 55 -1 301 7 160 13 347 13 417
l1 127 43 4 c23 2 48 4 56 5 10 2 12 -6 7 -30z m5466 -118 c40 -6 123 -11 183
-13 80 -2 117 -7 135 -19 14 -9 52 -18 86 -21 33 -3 88 -16 123 -30 60 -24
223 -118 217 -125 -2 -1 -41 8 -87 22 -124 35 -250 49 -474 50 -192 1 -206 -1
-345 -33 -331 -75 -596 -143 -693 -176 -57 -19 -112 -35 -123 -35 -10 0 -48
-11 -84 -24 -36 -13 -99 -29 -140 -35 -42 -6 -131 -27 -197 -45 -67 -19 -164
-41 -215 -51 -51 -9 -133 -29 -183 -45 -99 -32 -211 -60 -447 -115 -87 -20
-189 -47 -226 -59 -38 -13 -89 -27 -113 -31 -24 -4 -93 -22 -154 -42 -60 -19
-132 -37 -160 -40 -27 -3 -125 -29 -216 -59 -509 -163 -992 -291 -1471 -389
-95 -19 -213 -49 -263 -65 -105 -35 -197 -55 -321 -70 -49 -6 -96 -17 -104
-24 -8 -8 -53 -17 -100 -20 -47 -4 -170 -20 -275 -36 -444 -68 -621 -64 -800
15 -32 14 -68 25 -81 25 -32 0 -286 87 -302 104 -12 11 -5 11 38 0 89 -23 473
-39 613 -25 171 17 513 86 602 121 101 41 206 64 445 100 261 38 346 55 447
91 45 16 95 29 113 29 17 0 42 7 55 16 14 9 32 13 41 10 9 -4 22 -2 28 3 21
17 136 50 304 86 190 42 296 71 326 90 21 14 205 65 234 65 8 0 39 11 68 25
30 14 84 33 121 41 38 9 91 25 118 36 28 11 115 38 194 60 79 21 156 45 170
52 14 7 42 16 61 20 71 13 276 80 299 98 13 10 35 18 48 18 13 0 84 21 156 46
73 25 227 70 342 100 116 30 235 65 265 79 34 14 93 28 150 35 52 6 113 20
136 31 22 10 62 19 88 19 27 0 63 8 86 20 27 14 59 20 100 20 34 0 96 9 138
19 161 41 236 51 486 65 143 9 261 18 264 21 9 9 218 5 294 -5z m648 -296
c149 -46 277 -149 377 -301 83 -127 100 -172 113 -298 17 -166 -9 -417 -49
-474 -10 -14 -31 -60 -46 -101 -34 -89 -105 -170 -221 -250 -78 -54 -232 -135
-240 -127 -3 3 12 40 34 83 92 183 109 277 73 392 -20 64 -39 97 -109 179 -33
39 -42 57 -36 70 12 27 14 266 3 383 -9 93 -69 423 -86 466 -5 14 1 15 53 9
32 -4 93 -18 134 -31z m-988 -46 c-16 -16 -15 -43 3 -58 12 -10 36 -8 119 9
96 19 298 30 283 15 -3 -3 -54 -27 -114 -54 -221 -97 -263 -120 -263 -145 0
-13 10 -29 24 -38 21 -14 29 -14 87 4 35 12 100 23 144 26 l80 5 -109 -61
c-159 -90 -196 -118 -196 -146 0 -61 62 -71 147 -23 47 27 68 32 137 35 76 4
80 3 61 -12 -11 -9 -77 -46 -147 -82 -70 -36 -144 -79 -164 -97 -34 -29 -35
-33 -23 -58 19 -43 55 -42 171 8 46 20 106 38 133 40 l50 5 -50 -27 c-27 -14
-110 -62 -182 -106 -113 -67 -133 -83 -133 -104 0 -17 8 -28 28 -36 23 -9 43
-5 132 25 l105 36 -45 -40 c-25 -21 -61 -47 -80 -56 -64 -29 -283 -295 -350
-425 -36 -69 -51 -79 -89 -58 -14 7 -38 0 -97 -25 -43 -19 -90 -35 -104 -35
l-25 1 30 24 c40 33 149 90 203 106 47 14 58 23 67 59 9 38 -25 65 -81 65 -41
0 -42 1 -26 17 34 34 186 118 213 118 49 0 61 86 13 104 -28 11 -158 6 -219
-8 -33 -8 -61 -13 -63 -11 -9 8 73 62 155 102 93 45 179 119 170 146 -6 19
-69 37 -107 31 -19 -3 -66 -17 -105 -30 -77 -27 -145 -45 -145 -37 0 11 50 46
158 109 106 63 112 69 112 99 0 18 -6 37 -12 43 -19 15 -116 -3 -236 -45 -57
-19 -106 -32 -109 -29 -22 21 226 194 312 217 52 15 76 99 28 99 -34 0 -199
-39 -293 -69 -52 -17 -95 -29 -97 -27 -14 14 228 153 329 189 19 7 33 49 24
72 -8 21 -70 19 -185 -5 -120 -26 -133 -25 -101 1 64 51 177 93 346 129 49 10
91 19 94 19 2 1 -1 -4 -8 -11z m-5200 -1333 c9 -27 14 -53 11 -57 -2 -5 -21
-8 -42 -8 -31 0 -40 5 -49 25 -20 44 -15 83 11 88 43 9 52 2 69 -48z m3112
-325 c70 -22 130 -40 133 -40 14 0 -44 -53 -83 -76 -66 -39 -181 -62 -369 -75
-280 -20 -586 9 -745 70 -60 23 -125 59 -118 67 8 7 312 74 340 74 20 0 42
-16 84 -60 64 -68 148 -114 233 -130 65 -12 113 -5 157 24 17 12 45 28 62 38
40 21 92 94 92 128 0 15 2 29 5 32 8 8 66 -6 209 -52z m-1866 -112 c-15 -46
-28 -89 -28 -97 0 -8 19 -54 41 -104 38 -81 41 -94 34 -140 -3 -29 -8 -65 -9
-82 -4 -43 -52 -132 -76 -140 -11 -3 -32 -23 -47 -43 -15 -20 -50 -62 -79 -92
-64 -69 -82 -104 -99 -189 -12 -66 -12 -66 -25 -36 -7 17 -15 60 -18 97 -4 60
-1 72 27 125 17 32 61 92 97 133 129 147 149 215 99 338 -47 116 -25 223 58
282 23 16 45 29 48 30 3 0 -7 -37 -23 -82z m2678 -943 c33 -50 0 -174 -66
-248 -51 -59 -172 -134 -261 -162 -82 -26 -201 -33 -244 -15 -18 7 -15 10 20
25 233 97 338 182 416 337 21 42 44 78 51 81 34 14 68 6 84 -18z m-999 -663
c8 -5 -5 -21 -42 -50 -72 -56 -164 -173 -254 -324 -73 -120 -171 -269 -209
-317 l-20 -24 -4 72 c-3 58 -8 76 -23 87 -46 34 -90 -8 -102 -95 l-8 -53 -58
-18 c-31 -10 -69 -25 -82 -34 -25 -16 -25 -16 -25 19 0 48 -24 102 -49 110
-23 7 -61 -10 -61 -28 0 -7 -5 -43 -10 -80 -12 -82 -39 -138 -81 -167 -40 -29
-53 -17 -78 74 -25 90 -36 101 -81 78 l-35 -17 4 -97 3 -98 -30 0 c-16 0 -43
3 -60 6 -27 5 -31 11 -41 62 -6 30 -11 70 -11 89 0 26 -6 36 -25 45 -65 30
-111 -29 -121 -155 l-7 -77 -42 0 c-23 0 -56 5 -72 11 -26 8 -31 17 -36 52 -6
45 -43 87 -77 87 -26 0 -50 -39 -57 -90 -5 -39 -8 -41 -32 -35 -30 7 -55 33
-93 99 -23 38 -33 46 -56 46 -43 0 -66 -31 -58 -76 4 -20 11 -44 15 -53 5 -9
15 -53 24 -97 17 -94 39 -134 72 -134 27 0 43 18 54 57 6 24 13 28 42 28 l34
0 7 -70 c6 -58 11 -74 33 -92 42 -37 70 -10 94 92 l12 50 93 0 94 0 6 -35 c3
-19 6 -58 6 -86 0 -63 16 -87 55 -82 27 3 30 7 33 43 2 22 10 62 18 88 9 27
14 59 12 72 -5 22 -2 24 60 31 87 9 96 -2 88 -109 -6 -79 5 -127 30 -127 19 0
62 57 74 98 5 20 10 56 10 79 0 40 3 44 54 77 29 20 58 36 65 36 7 0 11 -19
11 -49 0 -54 28 -101 60 -101 31 0 59 47 66 111 4 33 15 76 24 95 10 19 16 43
13 54 -4 13 0 20 9 20 8 0 58 27 111 60 52 33 98 60 101 60 2 0 -45 -102 -105
-227 -157 -324 -244 -446 -382 -538 l-57 -38 -113 6 c-141 8 -288 45 -326 81
-19 18 -45 29 -84 36 -31 5 -107 25 -169 45 -62 20 -135 39 -163 42 l-50 5 -1
132 c-1 100 -6 150 -23 211 -21 78 -79 209 -120 270 l-20 30 167 1 c146 0 182
4 287 28 136 32 512 158 601 203 32 16 113 56 179 90 66 33 184 84 263 113
103 38 168 69 230 110 48 32 122 70 166 86 43 15 95 39 115 52 20 14 56 31 81
38 55 15 62 16 77 6z m263 -96 c-22 -40 -85 -170 -140 -287 -55 -117 -105
-218 -112 -224 -22 -21 1 80 52 219 28 77 58 152 65 166 8 14 32 59 54 101 36
69 44 78 78 87 21 5 39 10 41 11 1 1 -16 -32 -38 -73z m-2788 -419 c37 -91
182 -612 214 -767 31 -151 45 -284 51 -487 4 -149 3 -153 -17 -153 -18 0 -20
6 -20 64 0 137 -44 432 -109 731 -11 50 -27 133 -36 185 -27 159 -50 257 -64
274 -8 10 -16 33 -18 53 -2 20 -8 44 -13 53 -5 9 -18 41 -30 69 -19 49 -19 52
-3 49 11 -2 28 -28 45 -71z m658 -1000 c39 -19 39 -69 1 -107 -69 -70 -186
-13 -150 73 22 52 82 65 149 34z"/>
<path d="M9291 9075 c-7 -33 -17 -85 -22 -115 -6 -30 -19 -95 -30 -145 -78
-373 -109 -640 -125 -1078 -6 -159 -5 -185 12 -239 18 -59 21 -62 74 -85 178
-79 253 -125 344 -212 82 -80 139 -157 199 -273 70 -134 91 -203 161 -508 57
-253 35 -490 -63 -691 -62 -125 -103 -178 -248 -319 -104 -103 -170 -157 -269
-222 -88 -59 -137 -85 -150 -82 -19 5 -47 0 -146 -28 -55 -15 -73 -37 -142
-175 -57 -113 -72 -153 -156 -393 -38 -107 -74 -212 -82 -232 -39 -111 -296
-395 -423 -469 -87 -51 -117 -59 -225 -59 -66 0 -101 -4 -107 -12 -5 -7 -20
-40 -33 -73 -39 -101 -173 -364 -241 -473 -79 -128 -192 -281 -318 -432 -128
-153 -553 -584 -598 -605 -20 -10 -68 -48 -109 -85 -40 -37 -99 -83 -131 -101
-32 -18 -87 -64 -123 -101 -36 -38 -104 -92 -153 -122 -48 -30 -138 -102 -200
-160 -117 -110 -177 -157 -342 -272 -55 -38 -149 -116 -210 -174 -60 -58 -151
-145 -203 -195 -196 -187 -228 -260 -240 -550 -11 -227 -23 -241 -150 -178
-61 30 -102 61 -198 154 -67 64 -132 120 -145 124 -19 6 -29 1 -57 -31 -42
-49 -98 -131 -142 -209 -18 -33 -41 -75 -52 -93 -13 -24 -15 -34 -6 -37 64
-22 451 -81 703 -107 157 -16 753 -16 910 0 737 75 1327 241 1945 548 881 438
1572 1054 2125 1893 138 209 209 336 331 586 294 606 453 1179 526 1900 16
157 16 753 0 910 -75 737 -241 1327 -548 1945 -237 477 -512 877 -877 1275
l-55 60 -11 -60z"/>
<path d="M3880 437 c-76 -32 -240 -126 -240 -138 0 -6 14 -11 205 -69 148 -46
160 -47 150 -22 -16 38 -34 140 -35 195 0 66 -1 66 -80 34z"/>
</g>
</svg>
