<?xml version="1.0" standalone="no"?>
<!DOCTYPE svg PUBLIC "-//W3C//DTD SVG 20010904//EN"
 "http://www.w3.org/TR/2001/REC-SVG-20010904/DTD/svg10.dtd">
<svg version="1.0" xmlns="http://www.w3.org/2000/svg"
 width="900.000000pt" height="900.000000pt" viewBox="0 0 900.000000 900.000000"
 preserveAspectRatio="xMidYMid meet">

<g transform="translate(0.000000,900.000000) scale(0.100000,-0.100000)"
fill="#000000" stroke="none">
<path d="M0 4500 l0 -4500 4500 0 4500 0 0 4500 0 4500 -4500 0 -4500 0 0
-4500z m5185 3585 c198 -52 360 -142 507 -283 137 -131 222 -249 486 -669 394
-627 772 -935 1292 -1050 102 -23 142 -26 360 -29 l245 -4 52 -102 c66 -131
136 -303 164 -404 49 -178 53 -206 53 -384 1 -161 -1 -184 -27 -283 -55 -209
-146 -399 -323 -670 -35 -54 -64 -104 -64 -112 0 -8 12 -54 26 -102 170 -579
36 -1161 -391 -1700 -198 -251 -542 -557 -850 -755 -713 -459 -1571 -703
-2465 -701 -875 2 -1683 242 -2297 681 -415 297 -717 650 -938 1097 -259 524
-307 1034 -144 1542 l20 62 -42 53 c-23 29 -66 103 -95 163 -110 231 -140 500
-84 756 51 235 182 433 363 552 77 50 191 107 215 107 6 0 15 6 19 13 4 7 55
39 113 72 330 184 576 388 733 607 64 88 165 280 258 488 100 224 247 461 399
643 132 157 280 276 441 351 117 55 210 76 336 76 197 0 360 -72 529 -232 l72
-69 69 52 c172 129 367 217 565 255 109 20 279 12 403 -21z"/>
<path d="M4720 7825 c-154 -34 -312 -107 -462 -211 -43 -30 -81 -54 -86 -54
-4 0 -28 21 -52 46 -128 132 -293 210 -465 221 -384 24 -760 -279 -1064 -859
-33 -62 -74 -149 -92 -193 -45 -110 -129 -271 -180 -347 -149 -221 -382 -419
-711 -604 -90 -51 -98 -57 -80 -68 11 -6 54 -34 95 -62 158 -109 303 -149 502
-141 159 7 252 31 542 140 193 72 348 120 478 149 81 17 378 17 475 -1 130
-24 309 -77 487 -145 148 -57 186 -68 275 -77 145 -15 234 -1 453 72 352 116
505 144 770 143 222 -1 319 -17 627 -108 366 -109 454 -128 656 -147 318 -29
621 38 897 200 39 22 66 41 60 42 -5 1 -57 1 -115 0 -476 -9 -861 157 -1227
530 -182 186 -304 350 -568 769 -129 204 -190 286 -298 397 -142 147 -280 231
-473 289 -74 22 -113 27 -234 30 -102 3 -164 -1 -210 -11z m391 -612 c103
-219 136 -281 254 -473 147 -241 176 -312 150 -377 -43 -108 -217 -103 -340 9
-77 71 -120 161 -142 303 -15 96 -15 137 -5 350 10 235 15 275 33 275 5 0 27
-39 50 -87z m-1580 -199 c-41 -424 -83 -552 -207 -640 -67 -48 -143 -74 -215
-74 -67 0 -107 16 -138 56 -49 62 -12 146 137 311 214 238 262 302 367 491 40
72 60 101 68 93 7 -7 3 -79 -12 -237z"/>
<path d="M3385 5633 c-111 -16 -355 -75 -670 -163 -214 -60 -484 -121 -580
-131 -292 -31 -500 31 -783 234 -99 70 -94 71 -202 -33 -112 -107 -192 -246
-241 -415 -19 -68 -23 -103 -23 -240 0 -153 1 -165 34 -274 35 -120 96 -234
172 -324 46 -55 46 -44 -7 -196 -68 -199 -80 -279 -80 -526 0 -206 2 -228 29
-339 41 -176 80 -284 161 -451 133 -274 291 -489 554 -759 479 -490 1202 -793
2106 -883 211 -21 677 -23 885 -4 191 17 485 63 635 100 353 87 761 257 1095
457 271 162 473 318 676 519 329 327 524 665 605 1045 19 87 23 137 23 295 1
197 -8 263 -55 435 -36 134 -38 120 33 228 202 302 298 513 332 729 20 124 20
181 1 306 -16 106 -78 306 -104 339 l-17 20 -40 -20 c-73 -37 -318 -135 -422
-168 -186 -59 -249 -69 -442 -68 -161 0 -190 4 -355 37 -175 36 -388 91 -477
123 -242 87 -441 134 -563 134 -153 0 -449 -58 -695 -135 -80 -26 -223 -62
-355 -92 -52 -11 -121 -17 -200 -17 -117 0 -123 1 -255 48 -523 184 -628 210
-775 189z m298 -790 c83 -40 170 -120 217 -202 19 -33 40 -61 47 -61 6 0 24
21 39 47 127 217 420 286 676 157 74 -37 177 -115 216 -163 l32 -40 52 53
c103 101 204 141 358 139 85 -1 119 -6 179 -27 82 -29 166 -78 182 -107 5 -11
14 -19 20 -19 6 0 48 25 93 55 148 98 251 135 376 135 121 0 282 -42 360 -94
l37 -24 29 25 c100 87 220 144 315 151 60 4 75 1 121 -22 94 -46 136 -135 145
-302 7 -126 -16 -214 -76 -294 -104 -138 -262 -183 -413 -118 l-52 22 -20 -29
c-11 -17 -54 -64 -96 -105 -120 -120 -248 -178 -415 -187 -160 -9 -267 33
-344 133 l-34 44 -30 -61 c-47 -96 -134 -182 -231 -229 -217 -105 -445 -60
-543 107 l-26 45 -25 -34 c-152 -199 -403 -287 -655 -229 -51 12 -120 34 -153
50 -63 30 -144 101 -144 127 0 11 -15 4 -52 -25 -224 -179 -580 -183 -763 -10
-50 48 -115 152 -115 186 0 22 -11 15 -70 -46 -170 -176 -387 -221 -562 -118
-76 44 -186 170 -219 249 -12 31 -33 37 -43 13 -11 -29 -97 -75 -140 -75 -146
0 -315 209 -346 429 -25 175 58 353 179 390 21 6 49 11 62 11 45 -1 109 -39
171 -103 35 -35 76 -72 91 -82 l28 -18 45 51 c50 58 115 97 224 138 95 35 233
40 320 11 58 -20 180 -98 268 -172 29 -25 59 -45 66 -45 7 0 29 26 49 58 41
66 113 142 168 179 123 81 277 95 402 36z m3307 -882 c99 -104 92 -389 -14
-599 -35 -69 -109 -156 -164 -193 -26 -18 -69 -57 -96 -86 -57 -63 -150 -129
-220 -156 -52 -19 -191 -26 -253 -13 -28 6 -34 3 -67 -42 -101 -138 -237 -212
-390 -212 -63 0 -145 15 -198 35 -12 5 -26 -8 -56 -52 -54 -79 -131 -149 -200
-181 -49 -23 -70 -27 -147 -27 -81 0 -97 3 -161 33 -73 35 -130 84 -156 136
l-15 29 -30 -64 c-66 -138 -208 -264 -350 -310 -94 -30 -250 -37 -329 -14
-126 36 -225 117 -288 234 l-34 64 -21 -47 c-61 -138 -189 -216 -356 -216
-204 0 -434 134 -539 314 -34 57 -43 66 -60 61 -150 -49 -239 -56 -338 -25
-169 52 -308 201 -405 432 -48 117 -44 112 -101 119 -140 18 -236 121 -272
294 -60 284 97 494 286 385 52 -30 126 -116 165 -193 15 -29 24 -37 38 -32 82
26 272 22 361 -6 55 -18 177 -83 270 -143 l85 -55 52 50 c29 28 77 61 107 75
245 112 617 32 711 -152 11 -22 21 -41 22 -43 2 -2 29 16 61 42 231 181 512
213 753 86 51 -27 130 -96 162 -142 12 -17 17 -13 55 46 45 70 89 110 162 148
38 20 59 24 140 24 82 0 105 -4 165 -29 39 -16 90 -42 115 -58 l45 -28 23 28
c159 186 227 204 476 124 l80 -25 15 24 c95 145 231 202 402 167 l57 -12 53
45 c65 54 213 160 254 182 17 9 48 16 69 17 33 0 45 -6 76 -39z"/>
</g>
</svg>
