<?xml version="1.0" standalone="no"?>
<!DOCTYPE svg PUBLIC "-//W3C//DTD SVG 20010904//EN"
 "http://www.w3.org/TR/2001/REC-SVG-20010904/DTD/svg10.dtd">
<svg version="1.0" xmlns="http://www.w3.org/2000/svg"
 width="220.000000pt" height="229.000000pt" viewBox="0 0 220.000000 229.000000"
 preserveAspectRatio="xMidYMid meet">

<g transform="translate(0.000000,229.000000) scale(0.100000,-0.100000)"
fill="#000000" stroke="none">
<path d="M0 1145 l0 -1145 526 0 525 0 -15 22 c-9 12 -35 35 -58 50 -106 71
-259 78 -385 16 -23 -12 -48 -18 -55 -15 -8 2 -29 36 -48 73 -23 45 -61 96
-112 148 l-77 78 5 52 c20 196 64 307 152 386 52 47 54 50 48 87 -22 124 -73
218 -145 269 -22 16 -41 37 -41 46 0 9 27 48 60 85 69 78 100 134 100 184 0
60 -44 134 -130 219 -73 73 -80 83 -80 119 0 230 172 391 418 391 85 0 183
-28 240 -70 23 -16 44 -30 47 -30 3 0 5 18 5 39 0 52 26 71 99 71 54 0 56 -1
112 -59 l58 -59 21 47 c31 65 68 111 90 111 11 0 36 -24 63 -62 84 -118 199
-211 311 -253 26 -10 53 -27 60 -38 6 -11 53 -83 104 -159 50 -77 92 -146 92
-155 0 -9 -15 -31 -34 -48 -43 -40 -53 -76 -65 -252 -13 -176 -29 -221 -111
-297 l-58 -53 24 -30 c35 -45 86 -153 139 -295 46 -124 48 -126 72 -117 39 15
63 11 73 -13 5 -13 23 -55 39 -95 47 -110 46 -115 -51 -164 -46 -23 -108 -59
-139 -80 -64 -43 -159 -127 -159 -140 0 -5 108 -9 240 -9 l240 0 0 1145 0
1145 -1100 0 -1100 0 0 -1145z"/>
<path d="M1313 2149 c-56 -104 -61 -105 -130 -32 -61 65 -98 82 -142 67 -25
-9 -26 -13 -29 -88 l-3 -78 -43 45 c-84 86 -227 129 -352 107 -174 -30 -288
-149 -308 -323 l-6 -48 84 -84 c98 -97 129 -153 128 -230 -1 -71 -27 -126 -97
-203 l-57 -62 51 -46 c62 -56 103 -138 127 -254 l17 -84 -24 -15 c-42 -26
-103 -95 -126 -141 -28 -58 -52 -148 -59 -230 l-6 -65 73 -75 c45 -45 86 -99
104 -135 17 -33 31 -62 32 -64 1 -2 22 6 47 17 109 52 247 51 359 -1 54 -25
73 -41 120 -96 l28 -33 103 103 c95 95 179 158 231 173 16 4 27 -6 55 -56 39
-68 124 -166 163 -187 24 -13 27 -11 63 29 59 65 149 130 256 185 l97 50 -34
84 c-19 46 -37 86 -39 89 -3 2 -19 -1 -37 -7 -18 -6 -35 -11 -40 -11 -4 0 -30
60 -58 132 -75 194 -100 246 -149 312 l-45 60 24 15 c44 29 110 95 126 125 27
51 33 86 43 234 11 153 29 219 69 244 12 7 21 18 21 24 0 6 -34 60 -76 120
-42 60 -84 125 -94 144 -14 28 -29 40 -62 51 -23 7 -74 34 -113 60 -72 47
-207 181 -227 224 -6 14 -15 25 -19 25 -4 0 -25 -32 -46 -71z m76 -44 c44 -66
166 -171 239 -208 70 -35 71 -35 50 -54 -42 -37 -57 -93 -67 -251 -8 -124 -14
-159 -33 -198 -39 -81 -97 -113 -253 -139 l-39 -7 51 -17 c118 -40 179 -125
276 -386 69 -185 63 -175 112 -168 42 5 43 5 55 -31 7 -21 10 -39 8 -41 -1 -1
-50 -38 -108 -80 -57 -43 -127 -102 -155 -132 -28 -29 -56 -53 -61 -53 -16 0
-70 62 -92 105 -11 22 -26 65 -35 95 -15 54 -20 85 -52 285 -23 141 -42 211
-78 278 -26 50 -71 97 -91 97 -3 0 -6 -115 -6 -255 0 -239 1 -255 18 -255 10
0 23 5 30 12 15 15 24 5 45 -48 l16 -42 -64 -31 c-89 -44 -159 -102 -213 -176
l-46 -64 -48 44 c-98 88 -235 127 -353 101 -33 -7 -68 -16 -77 -21 -15 -6 -18
-2 -18 21 0 80 48 191 107 247 31 31 122 77 151 77 4 0 7 81 7 180 0 99 -2
180 -5 180 -3 0 -18 -8 -35 -18 -28 -18 -45 -42 -60 -87 -5 -16 -11 -10 -36
35 -16 30 -45 71 -64 90 l-35 36 41 49 c48 58 69 96 69 125 0 32 13 24 38 -24
13 -24 36 -56 52 -71 l28 -27 7 218 c8 244 1 306 -43 355 -42 45 -105 57 -193
36 -40 -10 -73 -16 -75 -15 -1 2 5 26 15 54 61 182 303 259 467 149 67 -44
113 -130 117 -217 2 -65 12 -71 62 -38 l30 20 5 137 5 138 28 3 27 3 1 -98 c1
-54 1 -104 0 -110 -2 -18 10 -16 39 4 66 44 129 107 164 162 22 34 42 61 45
61 3 0 17 -16 30 -35z"/>
<path d="M1173 1810 c-61 -14 -61 -10 -62 -260 l-2 -230 22 0 c38 0 86 47 121
117 31 63 33 75 33 168 0 126 -17 190 -54 203 -14 5 -41 5 -58 2z"/>
<path d="M1010 1724 c-19 -13 -40 -24 -47 -24 -11 0 -13 -42 -11 -202 l3 -203
43 -3 c28 -2 44 1 47 10 3 7 4 111 3 230 l-3 216 -35 -24z"/>
<path d="M988 1193 l-38 -4 0 -210 0 -209 41 -38 c23 -20 45 -38 50 -40 5 -2
9 109 9 252 0 199 -3 256 -12 254 -7 -1 -30 -3 -50 -5z"/>
<path d="M1365 196 c-50 -33 -205 -177 -205 -189 0 -4 106 -7 235 -7 l234 0
-49 46 c-27 25 -70 77 -96 115 -26 38 -52 69 -58 69 -6 0 -34 -15 -61 -34z"/>
</g>
</svg>
