<?xml version="1.0" standalone="no"?>
<!DOCTYPE svg PUBLIC "-//W3C//DTD SVG 20010904//EN"
 "http://www.w3.org/TR/2001/REC-SVG-20010904/DTD/svg10.dtd">
<svg version="1.0" xmlns="http://www.w3.org/2000/svg"
 width="352.000000pt" height="352.000000pt" viewBox="0 0 352.000000 352.000000"
 preserveAspectRatio="xMidYMid meet">

<g transform="translate(0.000000,352.000000) scale(0.100000,-0.100000)"
fill="#000000" stroke="none">
<path d="M0 1760 l0 -1760 1760 0 1760 0 0 1760 0 1760 -1760 0 -1760 0 0
-1760z m1912 1451 c42 -11 110 -35 151 -54 l75 -35 -8 -38 c-42 -219 -207
-484 -442 -711 l-76 -73 -38 16 c-75 31 -256 -8 -382 -83 -82 -48 -106 -86
-103 -163 2 -64 3 -62 -71 -76 -43 -7 -50 6 -16 28 21 14 22 18 10 67 -27 119
-14 145 114 223 46 28 89 57 95 64 8 10 3 27 -18 66 -37 70 -56 70 -63 -2 -7
-69 -21 -95 -60 -109 -30 -10 -32 -9 -45 22 -18 44 -45 240 -45 330 0 90 13
137 57 206 72 112 187 212 305 264 66 30 170 64 229 77 66 14 243 4 331 -19z
m417 -241 c69 -86 127 -266 118 -365 -5 -51 -64 -312 -73 -323 -1 -2 -11 -1
-22 2 -28 9 -50 61 -54 125 -5 61 -14 70 -45 44 -78 -70 -63 -113 70 -197 110
-69 126 -106 91 -209 -15 -45 -15 -48 6 -77 12 -16 18 -35 15 -41 -4 -6 0 -16
9 -22 26 -19 4 -79 -42 -113 -20 -15 -53 -46 -72 -68 -32 -35 -42 -40 -92 -44
-31 -2 -71 1 -89 7 -44 15 -99 -2 -99 -31 0 -15 17 -27 70 -51 87 -38 95 -63
18 -52 -93 12 -93 12 -96 -18 -4 -31 -28 -47 -92 -60 -91 -18 -130 -20 -130
-6 0 8 -6 7 -18 -4 -19 -17 -82 -23 -96 -10 -4 4 -38 7 -77 8 -48 0 -72 4 -78
14 -6 8 -16 11 -27 7 -9 -4 -42 1 -72 9 -43 13 -56 22 -65 44 -10 26 -13 27
-66 24 l-56 -4 25 20 c14 11 32 21 40 21 25 1 37 13 45 47 6 28 2 37 -24 64
-31 30 -33 31 -100 24 -47 -5 -77 -3 -92 5 -13 7 -61 49 -106 93 -68 67 -83
87 -83 112 0 19 3 25 9 17 6 -10 18 -11 52 -3 64 15 66 14 74 -25 8 -47 45
-84 84 -84 39 0 179 44 256 81 78 36 156 97 174 134 8 17 14 61 14 109 l0 81
60 45 c131 100 345 331 468 509 70 102 78 114 99 159 10 23 23 42 28 42 5 0
23 -18 41 -40z m-1647 -852 c8 -7 35 -40 60 -73 25 -33 55 -69 67 -79 11 -11
21 -24 21 -31 0 -6 -17 -50 -37 -97 -30 -68 -49 -94 -91 -131 -61 -55 -59 -59
10 -16 l50 30 68 -63 c91 -86 107 -98 219 -173 87 -58 426 -230 553 -281 27
-10 48 -22 48 -25 0 -4 -23 -16 -50 -27 -39 -16 -57 -19 -76 -12 -14 6 -33 10
-42 10 -16 -1 -15 -1 1 -11 25 -15 21 -24 -21 -43 l-38 -17 -115 46 c-313 126
-556 271 -708 421 -58 56 -104 94 -116 94 -11 0 -67 8 -124 17 l-105 18 -63
97 c-35 54 -63 104 -63 112 0 20 52 126 61 126 4 0 47 -42 96 -94 l88 -94 74
7 c70 7 76 9 107 47 19 21 34 44 34 51 0 11 -67 126 -106 181 l-16 22 99 0
c64 0 105 -4 115 -12z m2248 -31 c0 -7 -27 -55 -60 -106 l-61 -93 36 -44 c38
-46 48 -50 133 -57 l53 -4 67 75 c37 41 77 86 88 99 25 27 29 24 67 -56 26
-54 26 -54 7 -90 -10 -20 -40 -67 -67 -106 l-48 -70 -110 -19 -111 -18 -78 31
c-43 17 -81 30 -83 28 -2 -2 20 -19 49 -38 28 -19 54 -40 56 -47 6 -19 -110
-128 -216 -202 -253 -179 -578 -317 -1304 -554 -180 -58 -334 -109 -343 -112
-10 -4 -15 0 -15 10 0 20 -16 13 333 142 147 54 264 100 259 102 -5 1 -133
-38 -285 -88 -152 -49 -291 -90 -310 -90 -18 0 -42 6 -53 14 -23 18 -43 9 308
142 387 147 425 162 543 212 181 76 453 216 565 290 112 74 231 174 279 233
l30 36 -30 58 c-16 32 -34 75 -40 95 -11 37 -11 38 66 133 l78 96 91 4 c50 1
94 4 99 5 4 1 7 -4 7 -11z m-738 -1113 c125 -43 320 -122 332 -134 6 -6 -2
-13 -18 -20 -23 -8 -64 2 -264 65 -130 41 -238 73 -239 71 -7 -7 479 -195 491
-190 6 2 24 27 39 54 28 49 29 50 76 50 26 0 81 3 122 6 l74 7 63 -76 c34 -41
62 -80 62 -85 0 -23 -101 -160 -122 -166 -44 -11 -229 -7 -242 7 -43 43 -114
141 -110 152 6 13 -130 66 -336 131 -63 19 -143 44 -177 55 -35 11 -63 22 -63
25 0 10 83 42 97 37 7 -3 13 0 13 6 0 13 55 40 82 41 9 0 63 -16 120 -36z
m-1341 -156 c9 -7 39 -45 68 -85 l52 -71 -63 -81 -63 -81 -119 5 c-66 3 -125
10 -133 16 -26 22 -104 142 -101 156 2 8 28 45 58 83 l55 69 116 1 c78 0 120
-4 130 -12z"/>
<path d="M1920 2241 c-70 -14 -99 -46 -85 -92 4 -13 0 -34 -10 -54 -26 -47
-14 -77 45 -115 64 -41 216 -90 279 -90 37 0 57 6 89 30 23 16 45 37 50 47 4
10 8 55 7 100 -1 74 -3 84 -26 102 -53 45 -264 88 -349 72z"/>
<path d="M1634 1915 c-21 -44 -40 -83 -42 -87 -2 -5 5 -8 16 -8 11 0 25 -7 32
-15 18 -21 25 -11 22 33 -1 20 1 31 4 25 13 -30 24 -9 24 45 0 95 -14 97 -56
7z"/>
<path d="M1710 1916 c0 -61 10 -84 24 -53 3 6 5 -5 4 -25 -3 -44 4 -54 22 -33
7 8 19 15 26 15 19 0 18 4 -12 69 -37 81 -39 84 -52 89 -8 2 -12 -16 -12 -62z"/>
<path d="M1595 1733 c-10 -3 -70 -36 -133 -74 -62 -38 -119 -69 -127 -69 -8 0
-17 -4 -20 -10 -10 -16 16 -12 111 16 115 34 201 53 242 54 39 0 40 11 6 56
-26 33 -38 37 -79 27z"/>
<path d="M1805 1722 c-11 -9 -28 -29 -37 -43 -17 -26 -16 -27 5 -33 12 -3 39
-6 60 -6 21 0 92 -16 158 -35 67 -19 128 -35 137 -35 24 0 -237 150 -283 163
-12 4 -28 -1 -40 -11z"/>
<path d="M2663 783 c-24 -3 -38 -13 -54 -39 l-21 -35 23 -34 c23 -33 27 -35
81 -35 56 0 58 1 84 39 l26 40 -29 35 c-29 37 -34 38 -110 29z"/>
<path d="M645 706 l-26 -35 25 -37 c23 -34 30 -38 73 -39 61 -3 68 0 93 41
l21 34 -27 35 c-24 32 -30 35 -80 35 -49 0 -55 -3 -79 -34z"/>
</g>
</svg>
